<svg xmlns="http://www.w3.org/2000/svg" viewBox="0 0 177.17 176.74"><defs><style>.cls-1,.cls-4{fill:none;}.cls-1{stroke:#415866;}.cls-2{fill:#415866;}.cls-3{fill:#259b93;}.cls-4{stroke:#259b93;stroke-miterlimit:10;}</style></defs><title>Artificial Intelligence</title><g id="Layer_2" data-name="Layer 2"><g id="Capa_1" data-name="Capa 1"><g id="Artificial_Intelligence" data-name="Artificial Intelligence"><path class="cls-1" d="M84.88,168.39l-4.06-2.32s-7.88,10-12.89,10c-11.91,0-35.31-13.51-41.26-23.82-2.91-5,0-23.28,0-23.28S8.74,120.45,5,113.9c-6-10.31-6-37.33,0-47.64,3.77-6.55,21.7-15.11,21.7-15.11s-3.35-21,0-26.77C32.62,14.06,56.07,1.67,67.93.55,73.63,0,85.08,8.1,85.08,8.1Z"/><path class="cls-2" d="M66.58,98.67a7.26,7.26,0,1,0-7.26-7.25,7.26,7.26,0,0,0,7.26,7.25Zm0-12.81A5.56,5.56,0,1,1,61,91.42a5.57,5.57,0,0,1,5.55-5.56Z"/><path class="cls-1" d="M108.94.55C120.76,2,144.25,14.06,150.2,24.38c3.35,5.8,0,26.77,0,26.77S167.62,60,171.9,66.26c6.76,9.81,6,37.33,0,47.64-3.77,6.55-21.7,15.11-21.7,15.11s2.62,18.08,0,23.28c-5.35,10.64-29.51,21.88-41.26,23.82C102.43,177.19,92,171,92,171V8.1h0S102.25-.25,108.94.55Z"/><polyline class="cls-1" points="116.07 138.16 116.07 115.97 134.68 107.54 134.68 76.35 116.07 63.85 116.07 42.33"/><path class="cls-3" d="M115.35,31.67A7.26,7.26,0,1,0,125.53,33a7.26,7.26,0,0,0-10.18-1.31Zm7.82,10.14a5.55,5.55,0,1,1,1-7.79,5.56,5.56,0,0,1-1,7.79Z"/><path class="cls-3" d="M113.1,149.54a7.26,7.26,0,1,1,10.26-.22,7.26,7.26,0,0,1-10.26.22Zm8.87-9.25a5.56,5.56,0,1,0,.16,7.85,5.56,5.56,0,0,0-.16-7.85Z"/><path class="cls-2" d="M112.53,84.16a7.26,7.26,0,1,0,7.25,7.26,7.26,7.26,0,0,0-7.25-7.26Zm0,12.81a5.56,5.56,0,1,1,5.55-5.56A5.56,5.56,0,0,1,112.53,97Z"/><polyline class="cls-1" points="58.9 42.33 58.9 63.85 40.29 76.35 40.29 107.54 58.9 115.97 58.9 138.16"/><path class="cls-3" d="M59.75,31.67a7.26,7.26,0,1,0,1.31,10.18,7.26,7.26,0,0,0-1.31-10.18C56.58,29.22,62.92,34.11,59.75,31.67ZM51.92,41.81a5.55,5.55,0,1,1,7.8-1,5.56,5.56,0,0,1-7.8,1Z"/><path class="cls-3" d="M61.87,149.54a7.26,7.26,0,1,1,.22-10.26,7.26,7.26,0,0,1-.22,10.26ZM53,140.29a5.55,5.55,0,1,0,7.85.17,5.56,5.56,0,0,0-7.85-.17Z"/><line class="cls-4" x1="140.52" y1="56.5" x2="150.2" y2="51.15"/><line class="cls-4" x1="164.64" y1="91.42" x2="176.38" y2="91.42"/><line class="cls-4" x1="140.33" y1="124.78" x2="150.2" y2="129.01"/><line class="cls-4" x1="36.35" y1="56.1" x2="26.67" y2="50.75"/><line class="cls-4" x1="12.23" y1="91.02" x2="0.5" y2="91.02"/><line class="cls-4" x1="36.55" y1="124.39" x2="26.67" y2="128.62"/><circle class="cls-3" cx="140.33" cy="56.5" r="6.41" transform="translate(-9.82 74.93) rotate(-28.93)"/><circle class="cls-3" cx="140.52" cy="124.78" r="6.41"/><circle class="cls-3" cx="164.64" cy="91.42" r="6.41"/><circle class="cls-3" cx="36.55" cy="56.1" r="6.41" transform="translate(-30.24 60.95) rotate(-61.07)"/><circle class="cls-3" cx="36.35" cy="124.39" r="6.41"/><circle class="cls-3" cx="12.23" cy="91.02" r="6.41"/></g></g></g></svg>