<?xml version="1.0" encoding="utf-8"?>
<!-- Generator: Adobe Illustrator 24.1.2, SVG Export Plug-In . SVG Version: 6.00 Build 0)  -->
<svg version="1.1" id="Capa_1" xmlns="http://www.w3.org/2000/svg" xmlns:xlink="http://www.w3.org/1999/xlink" x="0px" y="0px"
	 viewBox="0 0 177.2 177.2" style="enable-background:new 0 0 177.2 177.2;" xml:space="preserve">
<style type="text/css">
	.st0{fill:#BBCC32;}
</style>
<path class="st0" d="M56.2,85.5L76,104.2c1.7-2.1,3.1-3.8,4.4-5.5c12.4-15.8,24.7-31.6,37-47.5c3.3-4.2,3.6-4.3,7.8-1
	c2.3,1.8,4.7,3.7,7,5.6c2.9,2.4,3,2.9,0.8,5.8c-5.6,7.2-11.2,14.4-16.8,21.6c-11.4,14.7-22.8,29.3-34.2,43.9
	c-3.8,4.8-3.9,4.8-8.2,0.8C64.9,119.3,56,110.7,47,102c-3.3-3.2-3.3-3.6-0.2-6.9C49.8,92.1,52.8,89,56.2,85.5z"/>
</svg>
