<svg xmlns="http://www.w3.org/2000/svg" viewBox="0 0 176.52 181.01"><defs><style>.cls-1{fill:#259b93;}.cls-2,.cls-3,.cls-4,.cls-5,.cls-6,.cls-7{fill:none;}.cls-2,.cls-3,.cls-7{stroke:#415866;}.cls-2,.cls-3{stroke-linejoin:round;}.cls-3{stroke-dasharray:4.85 4.85;}.cls-4,.cls-5,.cls-6{stroke:#259b93;stroke-miterlimit:10;}.cls-5{stroke-dasharray:2.1 2.1;}.cls-6{stroke-dasharray:2.11 2.11;}.cls-8{fill:#415866;}</style></defs><title>DigitalProcessAutomation</title><g id="Layer_2" data-name="Layer 2"><g id="Capa_1" data-name="Capa 1"><g id="DigitalProcessAutomation"><path class="cls-1" d="M157.18,95.77l0-14.32-11-.87A59.44,59.44,0,0,0,145,74l9.8-4.93-5.42-13.25L138.9,59.15a59.76,59.76,0,0,0-3.92-5.9l7.15-8.34L132,34.77l-8.37,7.12a58.07,58.07,0,0,0-5.56-3.74l3.45-10.43-13.2-5.55-5,9.76a58.53,58.53,0,0,0-6.95-1.39l-.84-11-14.32,0-.87,11a59.44,59.44,0,0,0-6.59,1.26L68.82,22,55.57,27.4l3.34,10.46A59.76,59.76,0,0,0,53,41.78l-8.34-7.15L34.53,44.73l7.12,8.37a58.07,58.07,0,0,0-3.74,5.56L27.48,55.21l-5.54,13.2,9.75,5a58.53,58.53,0,0,0-1.39,7l-11,.84,0,14.32,11,.87A59.44,59.44,0,0,0,31.54,103l-9.8,4.93,5.42,13.25,10.46-3.34a59.76,59.76,0,0,0,3.92,5.9l-7.15,8.34,10.1,10.14,8.37-7.12a58.07,58.07,0,0,0,5.56,3.74L55,149.28l13.2,5.55,5-9.76a58.53,58.53,0,0,0,7,1.39l.84,11,14.32,0,.88-11a59.71,59.71,0,0,0,6.58-1.26l4.93,9.8L121,149.6l-3.34-10.46a59.76,59.76,0,0,0,5.9-3.92l8.34,7.15L142,132.27l-7.12-8.37a58.07,58.07,0,0,0,3.74-5.56L149,121.79l5.55-13.2-9.76-5a58.53,58.53,0,0,0,1.39-7ZM88.26,132.9a44.4,44.4,0,1,1,44.4-44.4A44.4,44.4,0,0,1,88.26,132.9Z"/><polyline class="cls-2" points="65.08 72.62 62.92 73.87 62.92 76.37"/><line class="cls-3" x1="62.92" y1="81.22" x2="62.92" y2="98.21"/><polyline class="cls-2" points="62.92 100.63 62.92 103.13 65.08 104.38"/><line class="cls-3" x1="69.29" y1="106.81" x2="83.99" y2="115.3"/><polyline class="cls-2" points="86.09 116.51 88.26 117.76 90.42 116.51"/><line class="cls-3" x1="94.63" y1="114.09" x2="109.34" y2="105.59"/><polyline class="cls-2" points="111.44 104.38 113.6 103.13 113.6 100.63"/><line class="cls-3" x1="113.6" y1="95.78" x2="113.6" y2="78.79"/><polyline class="cls-2" points="113.6 76.37 113.6 73.87 111.44 72.62"/><line class="cls-3" x1="107.24" y1="70.19" x2="92.53" y2="61.7"/><polyline class="cls-2" points="90.42 60.49 88.26 59.24 86.09 60.49"/><line class="cls-3" x1="81.89" y1="62.91" x2="67.18" y2="71.41"/><line class="cls-4" x1="88.26" y1="88.28" x2="87.39" y2="87.78"/><line class="cls-5" x1="85.58" y1="86.73" x2="64.69" y2="74.67"/><line class="cls-4" x1="63.78" y1="74.15" x2="62.92" y2="73.65"/><line class="cls-4" x1="113.6" y1="73.65" x2="112.74" y2="74.15"/><line class="cls-5" x1="110.92" y1="75.2" x2="90.03" y2="87.26"/><polyline class="cls-4" points="89.13 87.78 88.26 88.28 88.26 89.28"/><line class="cls-6" x1="88.26" y1="91.39" x2="88.26" y2="115.71"/><line class="cls-4" x1="88.26" y1="116.76" x2="88.26" y2="117.76"/><path class="cls-7" d="M176,88.26A87.76,87.76,0,1,0,88.26,176h80.58"/><polygon class="cls-8" points="167.38 181.01 176.02 176.02 167.38 171.03 167.38 181.01"/></g></g></g></svg>