<?xml version="1.0" encoding="utf-8"?>
<!-- Generator: Adobe Illustrator 23.1.1, SVG Export Plug-In . SVG Version: 6.00 Build 0)  -->
<svg version="1.1" id="Layer_1" xmlns="http://www.w3.org/2000/svg" xmlns:xlink="http://www.w3.org/1999/xlink" x="0px" y="0px"
	 viewBox="0 0 20 15" style="enable-background:new 0 0 20 15;" xml:space="preserve">
<style type="text/css">
	.st0{fill:#E2E2E2;}
</style>
<g>
	<path class="st0" d="M8.2,11.4c0,1.1-0.4,1.9-1.1,2.5s-1.6,0.9-2.6,0.9c-1.4,0-2.5-0.4-3.3-1.2S0,11.6,0,9.9C0,8.4,0.3,7,0.7,5.9
		c0.5-1.2,1-2.1,1.6-2.9c0.6-0.8,1.3-1.4,2-1.8c0.7-0.5,1.3-0.8,1.9-1L8,2.5C6.9,3.1,6,3.8,5.2,4.7C4.4,5.5,4,6.6,4,7.9
		c0.2,0,0.4-0.1,0.7-0.1c0.9,0,1.7,0.3,2.4,1C7.8,9.5,8.2,10.4,8.2,11.4z M20,11.4c0,1.1-0.4,1.9-1.1,2.5c-0.7,0.6-1.6,0.9-2.6,0.9
		c-1.4,0-2.5-0.4-3.3-1.2c-0.8-0.8-1.2-2.1-1.2-3.7c0-1.6,0.2-2.9,0.7-4.1c0.4-1.2,1-2.1,1.6-2.9c0.6-0.8,1.3-1.4,2-1.8
		c0.7-0.5,1.3-0.8,1.9-1l1.8,2.4c-1.1,0.5-2,1.3-2.8,2.1c-0.8,0.9-1.2,2-1.2,3.3c0.2,0,0.4-0.1,0.7-0.1c0.9,0,1.7,0.3,2.4,1
		C19.6,9.5,20,10.4,20,11.4z"/>
</g>
</svg>
