<svg xmlns="http://www.w3.org/2000/svg" viewBox="0 0 177.13 177.17"><defs><style>.cls-1{fill:#259b93;}.cls-2,.cls-3,.cls-4{fill:none;stroke:#415866;}.cls-3,.cls-4{stroke-linecap:round;}.cls-3{stroke-linejoin:round;}.cls-5{fill:#415866;}</style></defs><title>RPA</title><g id="Layer_2" data-name="Layer 2"><g id="Capa_1" data-name="Capa 1"><g id="RPA"><path class="cls-1" d="M106.76,83a6.64,6.64,0,1,1,.51,13.27"/><path class="cls-1" d="M71,83a6.64,6.64,0,0,0-.51,13.27"/><path class="cls-2" d="M58.67,50.3h60.39a8,8,0,0,1,8,8.05v60.39"/><path class="cls-2" d="M119.06,126.79H58.67a8,8,0,0,1-8.05-8.05V58.35"/><polyline class="cls-3" points="68.32 50.26 68.32 38.5 46.62 16.8"/><line class="cls-3" x1="80.12" y1="50.25" x2="80.12" y2="31.35"/><line class="cls-3" x1="91.91" y1="50.25" x2="91.91" y2="0.5"/><line class="cls-3" x1="104.35" y1="50.38" x2="104.35" y2="38.63"/><line class="cls-3" x1="115.59" y1="50.25" x2="115.59" y2="23.13"/><circle class="cls-3" cx="115.59" cy="18.71" r="4.42"/><circle class="cls-1" cx="43.63" cy="13.49" r="4.42"/><polyline class="cls-3" points="126.88 62.65 138.63 62.65 160.33 40.94"/><line class="cls-3" x1="126.88" y1="74.44" x2="145.78" y2="74.44"/><line class="cls-3" x1="126.88" y1="86.23" x2="176.63" y2="86.23"/><line class="cls-3" x1="126.75" y1="98.68" x2="138.5" y2="98.68"/><line class="cls-3" x1="126.88" y1="109.92" x2="154" y2="109.92"/><circle class="cls-3" cx="158.42" cy="109.92" r="4.42"/><circle class="cls-1" cx="163.64" cy="37.95" r="4.42"/><polyline class="cls-3" points="111 126.92 111 138.67 132.7 160.38"/><line class="cls-3" x1="99.2" y1="126.92" x2="99.2" y2="145.82"/><line class="cls-3" x1="87.41" y1="126.92" x2="87.41" y2="176.67"/><line class="cls-3" x1="74.97" y1="126.79" x2="74.97" y2="138.55"/><line class="cls-3" x1="63.73" y1="126.92" x2="63.73" y2="154.04"/><circle class="cls-3" cx="63.73" cy="158.47" r="4.42"/><circle class="cls-1" cx="135.69" cy="163.68" r="4.42"/><polyline class="cls-3" points="50.26 113.78 38.5 113.78 16.8 135.48"/><line class="cls-3" x1="50.25" y1="101.99" x2="31.35" y2="101.99"/><line class="cls-3" x1="50.25" y1="90.19" x2="0.5" y2="90.19"/><line class="cls-3" x1="50.38" y1="77.75" x2="38.63" y2="77.75"/><line class="cls-3" x1="50.25" y1="66.51" x2="23.13" y2="66.51"/><circle class="cls-3" cx="18.71" cy="66.51" r="4.42"/><circle class="cls-1" cx="13.49" cy="138.47" r="4.42"/><path class="cls-2" d="M102.91,105.53H74.82c-2.73,0-4.91-2.67-4.77-5.85L70.93,80c.13-3,2.23-5.27,4.77-5.27H102c2.54,0,4.64,2.31,4.78,5.27l.88,19.68C107.83,102.86,105.65,105.53,102.91,105.53Z"/><line class="cls-4" x1="79.32" y1="97.2" x2="98.41" y2="97.2"/><circle class="cls-5" cx="79.32" cy="86.1" r="4.03"/><circle class="cls-5" cx="98.41" cy="86.1" r="4.03"/><line class="cls-2" x1="88.87" y1="74.73" x2="88.87" y2="69.92"/><circle class="cls-2" cx="88.87" cy="67.82" r="2.25"/></g></g></g></svg>